<?xml version="1.0" encoding="UTF-8"?>
<svg width="142px" height="42px" viewBox="0 0 71 21" version="1.1" xmlns="http://www.w3.org/2000/svg" xmlns:xlink="http://www.w3.org/1999/xlink">
    <title>Mobile</title>
    <g id="Mobile" stroke="none" stroke-width="1" fill="none" fill-rule="evenodd">
        <rect fill="#FFFFFF" x="0" y="0" width="71" height="21"></rect>
        <g id="logo" transform="translate(1.000000, 0.000000)">
            <g id="Group-4" transform="translate(2.000000, 2.000000)">
                <g id="Triangle">
                    <g id="path-1-link" fill="#000000" fill-rule="nonzero">
                        <path d="M1.14923168,0.507392909 L15.5813405,14.9164104 C15.8365361,15.1711977 15.8282611,15.5763454 15.5628577,15.8213332 C15.4386681,15.9359697 15.2730715,16 15.1007852,16 L0.686872467,16 C0.31899822,16 0.0206522733,15.7139349 0.0202062933,15.3607759 L0.00200962606,0.951758368 C0.00156376,0.59829639 0.299678527,0.311411462 0.667868087,0.310982486 C0.84949316,0.310771578 1.02334567,0.381708314 1.14923168,0.507392909 Z" id="path-1"></path>
                    </g>
                    <g id="path-1-link" fill="#E91E63">
                        <path d="M1.14923168,0.507392909 L15.5813405,14.9164104 C15.8365361,15.1711977 15.8282611,15.5763454 15.5628577,15.8213332 C15.4386681,15.9359697 15.2730715,16 15.1007852,16 L0.686872467,16 C0.31899822,16 0.0206522733,15.7139349 0.0202062933,15.3607759 L0.00200962606,0.951758368 C0.00156376,0.59829639 0.299678527,0.311411462 0.667868087,0.310982486 C0.84949316,0.310771578 1.02334567,0.381708314 1.14923168,0.507392909 Z" id="path-1"></path>
                    </g>
                </g>
                <g id="Triangle" transform="translate(8.000000, 8.000000) scale(-1, 1) translate(-8.000000, -8.000000) ">
                    <g id="path-3-link" fill="#000000" fill-rule="nonzero">
                        <path d="M1.14923168,0.507392909 L15.7441395,15.0789489 C15.9610557,15.295518 15.9540219,15.6398936 15.728429,15.8481332 C15.6228679,15.9455743 15.4821107,16 15.3356674,16 L0.686872467,16 C0.318998223,16 0.0206522726,15.7139349 0.0202062921,15.3607759 L0.00200962284,0.951758368 C0.00156376033,0.59829639 0.299678525,0.311411462 0.667868087,0.310982486 C0.84949316,0.310771578 1.02334567,0.381708314 1.14923168,0.507392909 Z" id="path-3"></path>
                    </g>
                    <g id="path-3-link" fill="#00BCD4">
                        <path d="M1.14923168,0.507392909 L15.7441395,15.0789489 C15.9610557,15.295518 15.9540219,15.6398936 15.728429,15.8481332 C15.6228679,15.9455743 15.4821107,16 15.3356674,16 L0.686872467,16 C0.318998223,16 0.0206522726,15.7139349 0.0202062921,15.3607759 L0.00200962284,0.951758368 C0.00156376033,0.59829639 0.299678525,0.311411462 0.667868087,0.310982486 C0.84949316,0.310771578 1.02334567,0.381708314 1.14923168,0.507392909 Z" id="path-3"></path>
                    </g>
                </g>
            </g>
            <path d="M21,0 L21,20 L0,20 L0,0 L21,0 Z M17.7175674,2.80369337 L17.6415281,2.80781304 C17.4908478,2.8243716 17.3499414,2.89029614 17.2437251,2.99550089 L17.2437251,2.99550089 L10.4993532,9.67431881 L3.75627494,2.99550089 C3.63235589,2.87276203 3.46121983,2.80348787 3.28243265,2.80369337 C2.91999605,2.80411276 2.62653933,3.08427382 2.62697773,3.42945153 L2.62697773,3.42945153 L2.64489057,17.5007577 C2.64520993,17.7516461 2.80071492,17.9678605 3.02495156,18.0667288 C3.10290934,18.1046995 3.18986192,18.125 3.27895239,18.125 L3.27895239,18.125 L17.6988599,18.125 L17.7753289,18.120802 C18.1014449,18.0847571 18.3547018,17.8210051 18.3551095,17.5007577 L18.3551095,17.5007577 L18.3730213,3.42945153 L18.368699,3.35655828 C18.3311863,3.04567807 18.0541156,2.80408287 17.7175674,2.80369337 L17.7175674,2.80369337 Z" id="Combined-Shape" fill="#FFFFFF" fill-rule="nonzero"></path>
        </g>
        <text id="atercolor" font-family="Inter-ExtraBold, Inter" font-size="11" font-weight="600" letter-spacing="-0.265294115" fill="#000000">
            <tspan x="20" y="18">atercolor</tspan>
        </text>
    </g>
</svg>